<svg width="76" height="73" viewBox="0 0 76 73" fill="none" xmlns="http://www.w3.org/2000/svg">
<path d="M0 60H74" stroke="#58585A" stroke-width="0.3"/>
<path d="M2.44967 70.049C2.361 70.049 2.28867 70.028 2.23267 69.986C2.17667 69.944 2.13233 69.881 2.09967 69.797L0.174668 65.394C0.142001 65.3147 0.132668 65.2493 0.146668 65.198C0.160668 65.142 0.191001 65.0977 0.237668 65.065C0.289001 65.0323 0.347335 65.016 0.412668 65.016C0.501335 65.016 0.566668 65.037 0.608668 65.079C0.655335 65.1163 0.692668 65.1723 0.720668 65.247L2.56867 69.538H2.34467L4.18567 65.24C4.21833 65.17 4.258 65.1163 4.30467 65.079C4.35133 65.037 4.41667 65.016 4.50067 65.016C4.566 65.016 4.61967 65.0323 4.66167 65.065C4.70833 65.0977 4.73633 65.142 4.74567 65.198C4.75967 65.254 4.75033 65.3193 4.71767 65.394L2.79267 69.797C2.76 69.881 2.71567 69.944 2.65967 69.986C2.60833 70.028 2.53833 70.049 2.44967 70.049ZM7.05684 70.049C6.96351 70.049 6.89117 70.0233 6.83984 69.972C6.79317 69.916 6.76984 69.8413 6.76984 69.748V65.317C6.76984 65.219 6.79317 65.1443 6.83984 65.093C6.89117 65.0417 6.96351 65.016 7.05684 65.016C7.15017 65.016 7.22017 65.0417 7.26684 65.093C7.31817 65.1443 7.34384 65.219 7.34384 65.317V69.748C7.34384 69.8413 7.32051 69.916 7.27384 69.972C7.22717 70.0233 7.15484 70.049 7.05684 70.049ZM7.05684 64.379C6.94951 64.379 6.86551 64.351 6.80484 64.295C6.74417 64.2343 6.71384 64.1503 6.71384 64.043C6.71384 63.9357 6.74417 63.854 6.80484 63.798C6.86551 63.742 6.94951 63.714 7.05684 63.714C7.16884 63.714 7.25284 63.742 7.30884 63.798C7.36951 63.854 7.39984 63.9357 7.39984 64.043C7.39984 64.1503 7.36951 64.2343 7.30884 64.295C7.25284 64.351 7.16884 64.379 7.05684 64.379ZM9.86069 70C9.78603 70 9.72536 69.986 9.67869 69.958C9.63203 69.9253 9.59936 69.8833 9.58069 69.832C9.56203 69.776 9.55969 69.7153 9.57369 69.65C9.59236 69.58 9.62969 69.51 9.68569 69.44L12.5977 65.338V65.562H9.81869C9.73003 65.562 9.66236 65.541 9.61569 65.499C9.56903 65.4523 9.54569 65.3893 9.54569 65.31C9.54569 65.2307 9.56903 65.17 9.61569 65.128C9.66236 65.086 9.73003 65.065 9.81869 65.065H12.8567C12.9314 65.065 12.992 65.0813 13.0387 65.114C13.09 65.142 13.1227 65.1817 13.1367 65.233C13.1554 65.2843 13.1554 65.345 13.1367 65.415C13.1227 65.485 13.09 65.555 13.0387 65.625L10.1267 69.72V69.503H13.0037C13.0924 69.503 13.16 69.524 13.2067 69.566C13.2534 69.608 13.2767 69.6687 13.2767 69.748C13.2767 69.832 13.2534 69.895 13.2067 69.937C13.16 69.979 13.0924 70 13.0037 70H9.86069ZM15.6048 70C15.5021 70 15.4228 69.9743 15.3668 69.923C15.3154 69.867 15.2898 69.7877 15.2898 69.685V65.38C15.2898 65.2773 15.3154 65.2003 15.3668 65.149C15.4228 65.093 15.5021 65.065 15.6048 65.065H18.2088C18.2881 65.065 18.3488 65.086 18.3908 65.128C18.4328 65.17 18.4538 65.2283 18.4538 65.303C18.4538 65.3823 18.4328 65.443 18.3908 65.485C18.3488 65.527 18.2881 65.548 18.2088 65.548H15.8498V67.256H18.0618C18.1411 67.256 18.2018 67.277 18.2438 67.319C18.2858 67.3563 18.3068 67.4147 18.3068 67.494C18.3068 67.5733 18.2858 67.634 18.2438 67.676C18.2018 67.718 18.1411 67.739 18.0618 67.739H15.8498V69.517H18.2088C18.2881 69.517 18.3488 69.538 18.3908 69.58C18.4328 69.622 18.4538 69.6803 18.4538 69.755C18.4538 69.8343 18.4328 69.895 18.3908 69.937C18.3488 69.979 18.2881 70 18.2088 70H15.6048ZM24.0625 70.049C23.9692 70.049 23.8968 70.0233 23.8455 69.972C23.7988 69.916 23.7755 69.8413 23.7755 69.748V65.317C23.7755 65.219 23.7988 65.1443 23.8455 65.093C23.8968 65.0417 23.9692 65.016 24.0625 65.016C24.1558 65.016 24.2258 65.0417 24.2725 65.093C24.3238 65.1443 24.3495 65.219 24.3495 65.317V67.249H27.3105V65.317C27.3105 65.219 27.3338 65.1443 27.3805 65.093C27.4318 65.0417 27.5042 65.016 27.5975 65.016C27.6908 65.016 27.7608 65.0417 27.8075 65.093C27.8588 65.1443 27.8845 65.219 27.8845 65.317V69.748C27.8845 69.8413 27.8588 69.916 27.8075 69.972C27.7608 70.0233 27.6908 70.049 27.5975 70.049C27.5042 70.049 27.4318 70.0233 27.3805 69.972C27.3338 69.916 27.3105 69.8413 27.3105 69.748V67.746H24.3495V69.748C24.3495 69.8413 24.3262 69.916 24.2795 69.972C24.2328 70.0233 24.1605 70.049 24.0625 70.049ZM30.6877 70.049C30.5944 70.049 30.522 70.0233 30.4707 69.972C30.424 69.916 30.4007 69.8413 30.4007 69.748V65.317C30.4007 65.219 30.424 65.1443 30.4707 65.093C30.522 65.0417 30.5944 65.016 30.6877 65.016C30.781 65.016 30.851 65.0417 30.8977 65.093C30.949 65.1443 30.9747 65.219 30.9747 65.317V69.748C30.9747 69.8413 30.9514 69.916 30.9047 69.972C30.858 70.0233 30.7857 70.049 30.6877 70.049ZM30.6877 64.379C30.5804 64.379 30.4964 64.351 30.4357 64.295C30.375 64.2343 30.3447 64.1503 30.3447 64.043C30.3447 63.9357 30.375 63.854 30.4357 63.798C30.4964 63.742 30.5804 63.714 30.6877 63.714C30.7997 63.714 30.8837 63.742 30.9397 63.798C31.0004 63.854 31.0307 63.9357 31.0307 64.043C31.0307 64.1503 31.0004 64.2343 30.9397 64.295C30.8837 64.351 30.7997 64.379 30.6877 64.379ZM33.4915 70C33.4169 70 33.3562 69.986 33.3095 69.958C33.2629 69.9253 33.2302 69.8833 33.2115 69.832C33.1929 69.776 33.1905 69.7153 33.2045 69.65C33.2232 69.58 33.2605 69.51 33.3165 69.44L36.2285 65.338V65.562H33.4495C33.3609 65.562 33.2932 65.541 33.2465 65.499C33.1999 65.4523 33.1765 65.3893 33.1765 65.31C33.1765 65.2307 33.1999 65.17 33.2465 65.128C33.2932 65.086 33.3609 65.065 33.4495 65.065H36.4875C36.5622 65.065 36.6229 65.0813 36.6695 65.114C36.7209 65.142 36.7535 65.1817 36.7675 65.233C36.7862 65.2843 36.7862 65.345 36.7675 65.415C36.7535 65.485 36.7209 65.555 36.6695 65.625L33.7575 69.72V69.503H36.6345C36.7232 69.503 36.7909 69.524 36.8375 69.566C36.8842 69.608 36.9075 69.6687 36.9075 69.748C36.9075 69.832 36.8842 69.895 36.8375 69.937C36.7909 69.979 36.7232 70 36.6345 70H33.4915ZM39.2006 70.049C39.1166 70.049 39.0513 70.0257 39.0046 69.979C38.958 69.9277 38.9346 69.8577 38.9346 69.769V65.296C38.9346 65.2027 38.958 65.1327 39.0046 65.086C39.0513 65.0393 39.1166 65.016 39.2006 65.016C39.2753 65.016 39.3336 65.0323 39.3756 65.065C39.4223 65.093 39.4643 65.142 39.5016 65.212L41.4196 68.824H41.2096L43.1206 65.212C43.158 65.142 43.1976 65.093 43.2396 65.065C43.2816 65.0323 43.3423 65.016 43.4216 65.016C43.501 65.016 43.564 65.0393 43.6106 65.086C43.6573 65.1327 43.6806 65.2027 43.6806 65.296V69.769C43.6806 69.8577 43.6573 69.9277 43.6106 69.979C43.5686 70.0257 43.5033 70.049 43.4146 70.049C43.3306 70.049 43.2653 70.0257 43.2186 69.979C43.172 69.9277 43.1486 69.8577 43.1486 69.769V65.835H43.3166L41.5666 69.118C41.534 69.1787 41.499 69.223 41.4616 69.251C41.429 69.2743 41.38 69.286 41.3146 69.286C41.2493 69.286 41.198 69.272 41.1606 69.244C41.1233 69.216 41.0906 69.174 41.0626 69.118L39.2916 65.828H39.4596V69.769C39.4596 69.8577 39.4363 69.9277 39.3896 69.979C39.3476 70.0257 39.2846 70.049 39.2006 70.049ZM46.5239 70C46.4212 70 46.3419 69.9743 46.2859 69.923C46.2346 69.867 46.2089 69.7877 46.2089 69.685V65.38C46.2089 65.2773 46.2346 65.2003 46.2859 65.149C46.3419 65.093 46.4212 65.065 46.5239 65.065H49.1279C49.2072 65.065 49.2679 65.086 49.3099 65.128C49.3519 65.17 49.3729 65.2283 49.3729 65.303C49.3729 65.3823 49.3519 65.443 49.3099 65.485C49.2679 65.527 49.2072 65.548 49.1279 65.548H46.7689V67.256H48.9809C49.0602 67.256 49.1209 67.277 49.1629 67.319C49.2049 67.3563 49.2259 67.4147 49.2259 67.494C49.2259 67.5733 49.2049 67.634 49.1629 67.676C49.1209 67.718 49.0602 67.739 48.9809 67.739H46.7689V69.517H49.1279C49.2072 69.517 49.2679 69.538 49.3099 69.58C49.3519 69.622 49.3729 69.6803 49.3729 69.755C49.3729 69.8343 49.3519 69.895 49.3099 69.937C49.2679 69.979 49.2072 70 49.1279 70H46.5239ZM52.9991 70.049C52.9104 70.049 52.8404 70.0233 52.7891 69.972C52.7378 69.916 52.7121 69.8413 52.7121 69.748V65.562H51.1371C51.0531 65.562 50.9878 65.5387 50.9411 65.492C50.8944 65.4453 50.8711 65.3847 50.8711 65.31C50.8711 65.2307 50.8944 65.17 50.9411 65.128C50.9878 65.086 51.0531 65.065 51.1371 65.065H54.8681C54.9521 65.065 55.0174 65.086 55.0641 65.128C55.1108 65.17 55.1341 65.2307 55.1341 65.31C55.1341 65.3893 55.1108 65.4523 55.0641 65.499C55.0174 65.541 54.9521 65.562 54.8681 65.562H53.2931V69.748C53.2931 69.8413 53.2674 69.916 53.2161 69.972C53.1694 70.0233 53.0971 70.049 52.9991 70.049ZM57.306 70C57.2127 70 57.1404 69.9743 57.089 69.923C57.0377 69.867 57.012 69.7923 57.012 69.699V65.331C57.012 65.233 57.0354 65.1583 57.082 65.107C57.1334 65.0557 57.2057 65.03 57.299 65.03C57.3924 65.03 57.4624 65.0557 57.509 65.107C57.5604 65.1583 57.586 65.233 57.586 65.331V69.496H59.882C59.966 69.496 60.0314 69.5193 60.078 69.566C60.1247 69.608 60.148 69.6687 60.148 69.748C60.148 69.8273 60.1247 69.8903 60.078 69.937C60.0314 69.979 59.966 70 59.882 70H57.306ZM62.4278 70C62.3251 70 62.2458 69.9743 62.1898 69.923C62.1385 69.867 62.1128 69.7877 62.1128 69.685V65.38C62.1128 65.2773 62.1385 65.2003 62.1898 65.149C62.2458 65.093 62.3251 65.065 62.4278 65.065H65.0318C65.1111 65.065 65.1718 65.086 65.2138 65.128C65.2558 65.17 65.2768 65.2283 65.2768 65.303C65.2768 65.3823 65.2558 65.443 65.2138 65.485C65.1718 65.527 65.1111 65.548 65.0318 65.548H62.6728V67.256H64.8848C64.9641 67.256 65.0248 67.277 65.0668 67.319C65.1088 67.3563 65.1298 67.4147 65.1298 67.494C65.1298 67.5733 65.1088 67.634 65.0668 67.676C65.0248 67.718 64.9641 67.739 64.8848 67.739H62.6728V69.517H65.0318C65.1111 69.517 65.1718 69.538 65.2138 69.58C65.2558 69.622 65.2768 69.6803 65.2768 69.755C65.2768 69.8343 65.2558 69.895 65.2138 69.937C65.1718 69.979 65.1111 70 65.0318 70H62.4278ZM67.7809 70.049C67.6875 70.049 67.6152 70.0233 67.5639 69.972C67.5172 69.916 67.4939 69.8413 67.4939 69.748V65.359C67.4939 65.261 67.5195 65.1887 67.5709 65.142C67.6222 65.0907 67.6945 65.065 67.7879 65.065H69.4469C69.9742 65.065 70.3802 65.1887 70.6649 65.436C70.9495 65.6833 71.0919 66.0357 71.0919 66.493C71.0919 66.7823 71.0265 67.0343 70.8959 67.249C70.7699 67.459 70.5832 67.62 70.3359 67.732C70.0885 67.8393 69.7922 67.893 69.4469 67.893L69.5169 67.802H69.6569C69.8389 67.802 69.9975 67.8487 70.1329 67.942C70.2682 68.0353 70.3919 68.1847 70.5039 68.39L71.1759 69.643C71.2132 69.7083 71.2295 69.7737 71.2249 69.839C71.2249 69.8997 71.2039 69.951 71.1619 69.993C71.1199 70.0303 71.0592 70.049 70.9799 70.049C70.9005 70.049 70.8352 70.0303 70.7839 69.993C70.7325 69.9557 70.6882 69.902 70.6509 69.832L69.8879 68.418C69.7805 68.2173 69.6569 68.0843 69.5169 68.019C69.3769 67.949 69.1925 67.914 68.9639 67.914H68.0679V69.748C68.0679 69.8413 68.0445 69.916 67.9979 69.972C67.9512 70.0233 67.8789 70.049 67.7809 70.049ZM68.0679 67.459H69.3629C69.7455 67.459 70.0349 67.3797 70.2309 67.221C70.4269 67.0577 70.5249 66.815 70.5249 66.493C70.5249 66.1803 70.4269 65.9447 70.2309 65.786C70.0349 65.6227 69.7455 65.541 69.3629 65.541H68.0679V67.459ZM73.7635 70.049C73.6701 70.049 73.5978 70.0233 73.5465 69.972C73.4998 69.916 73.4765 69.8413 73.4765 69.748V65.317C73.4765 65.219 73.4998 65.1443 73.5465 65.093C73.5978 65.0417 73.6701 65.016 73.7635 65.016C73.8568 65.016 73.9268 65.0417 73.9735 65.093C74.0248 65.1443 74.0505 65.219 74.0505 65.317V69.748C74.0505 69.8413 74.0271 69.916 73.9805 69.972C73.9338 70.0233 73.8615 70.049 73.7635 70.049ZM73.7635 64.379C73.6561 64.379 73.5721 64.351 73.5115 64.295C73.4508 64.2343 73.4205 64.1503 73.4205 64.043C73.4205 63.9357 73.4508 63.854 73.5115 63.798C73.5721 63.742 73.6561 63.714 73.7635 63.714C73.8755 63.714 73.9595 63.742 74.0155 63.798C74.0761 63.854 74.1065 63.9357 74.1065 64.043C74.1065 64.1503 74.0761 64.2343 74.0155 64.295C73.9595 64.351 73.8755 64.379 73.7635 64.379Z" fill="#0C163D"/>
<path d="M18.4624 0C18.4573 0 18.4522 0 18.4466 0C18.4444 0 18.4421 0 18.4393 0C18.4321 0 18.4249 0.00148291 18.4176 0.00148291C8.24098 0.0245422 0 8.28057 0 18.4622C0 28.641 8.24098 36.8985 18.4176 36.923C18.4249 36.923 18.4321 36.9245 18.4393 36.9245C18.4421 36.9245 18.4444 36.9245 18.4466 36.9245C18.4522 36.9245 18.4573 36.9245 18.4624 36.9245C28.6568 36.9245 36.9245 28.6568 36.9245 18.4622C36.9245 8.26619 28.6568 0 18.4624 0ZM19.2005 11.0485C21.1578 10.9951 23.0632 10.7369 24.8964 10.2898C25.4503 12.4664 25.7922 14.9747 25.8469 17.7237H19.2004V11.0485H19.2005ZM19.2005 9.57152V1.59383C21.1924 2.14481 23.2089 4.79877 24.4941 8.86914C22.7891 9.28013 21.0194 9.51962 19.2005 9.57152ZM17.7239 1.57648V9.57152C15.8907 9.51962 14.1064 9.27583 12.3879 8.85757C13.6838 4.76266 15.7197 2.09861 17.7239 1.57648ZM17.7239 11.047V17.7237H11.032C11.0861 14.9702 11.4301 12.459 11.9833 10.2811C13.8316 10.7326 15.7507 10.9951 17.7239 11.047ZM9.54564 17.7237H1.49574C1.65871 13.9275 3.07296 10.4485 5.33744 7.69356C6.98177 8.5994 8.72633 9.34078 10.5539 9.89465C9.95745 12.25 9.5997 14.9053 9.54564 17.7237ZM9.54564 19.2007C9.5997 22.0177 9.95745 24.673 10.5539 27.0284C8.72708 27.5837 6.98184 28.3251 5.33751 29.2308C3.07304 26.476 1.65878 22.997 1.49581 19.2007H9.54564ZM11.032 19.2007H17.7239V25.8688C15.7508 25.9207 13.831 26.1847 11.9826 26.6375C11.4294 24.4611 11.0861 21.9514 11.032 19.2007ZM17.7239 27.3443V35.348C15.7183 34.8244 13.681 32.1574 12.3857 28.0582C14.1049 27.64 15.8899 27.3963 17.7239 27.3443ZM19.2005 35.3306V27.3443C21.0194 27.3963 22.7891 27.6371 24.4955 28.0481C23.2103 32.1214 21.1924 34.7797 19.2005 35.3306ZM19.2005 25.8688V19.2007H25.847C25.7923 21.9469 25.4503 24.4523 24.8993 26.6274C23.0632 26.1803 21.1593 25.9207 19.2005 25.8688ZM27.3326 19.2007H35.4287C35.2658 22.997 33.8522 26.4746 31.5877 29.2295C29.9303 28.3179 28.1706 27.5708 26.3273 27.014C26.9229 24.6615 27.2792 22.0119 27.3326 19.2007ZM27.3326 17.7237C27.2792 14.9083 26.9215 12.2572 26.3259 9.90325C28.1678 9.34649 29.9276 8.60081 31.5834 7.68926C33.8508 10.4441 35.2658 13.9246 35.4287 17.7237H27.3326ZM30.5665 6.56129C29.0968 7.343 27.5461 7.98918 25.9263 8.47965C25.0624 5.70164 23.8507 3.43427 22.417 1.94573C25.5614 2.70016 28.3696 4.32706 30.5665 6.56129ZM14.449 1.96019C13.0232 3.44584 11.8167 5.70313 10.9563 8.46668C9.35235 7.97769 7.81479 7.33729 6.35879 6.56129C8.54097 4.34152 11.3277 2.71884 14.449 1.96019ZM6.35368 30.3574C7.81116 29.58 9.34945 28.9396 10.9549 28.4506C11.8152 31.217 13.0217 33.4772 14.449 34.9643C11.3256 34.2042 8.53741 32.5801 6.35368 30.3574ZM22.417 34.9773C23.8522 33.4887 25.0638 31.2199 25.9278 28.4376C27.549 28.9295 29.101 29.5742 30.5709 30.3588C28.374 32.5945 25.5643 34.2243 22.417 34.9773Z" fill="#0A599E"/>
<path d="M55.3843 0C55.3792 0 55.3741 0 55.3685 0C55.3663 0 55.3639 0 55.3612 0C55.3539 0 55.3467 0.00148291 55.3395 0.00148291C45.1629 0.0245422 36.9219 8.28057 36.9219 18.4622C36.9219 28.641 45.1629 36.8985 55.3395 36.923C55.3467 36.923 55.3539 36.9245 55.3612 36.9245C55.3639 36.9245 55.3662 36.9245 55.3685 36.9245C55.3741 36.9245 55.3792 36.9245 55.3843 36.9245C65.5787 36.9245 73.8463 28.6568 73.8463 18.4622C73.8463 8.26619 65.5787 0 55.3843 0ZM56.1224 11.0485C58.0797 10.9951 59.9851 10.7369 61.8182 10.2898C62.3722 12.4664 62.7141 14.9747 62.7688 17.7237H56.1223V11.0485H56.1224ZM56.1224 9.57152V1.59383C58.1143 2.14481 60.1308 4.79877 61.416 8.86914C59.711 9.28013 57.9412 9.51962 56.1224 9.57152ZM54.6458 1.57648V9.57152C52.8126 9.51962 51.0283 9.27583 49.3097 8.85757C50.6057 4.76266 52.6416 2.09861 54.6458 1.57648ZM54.6458 11.047V17.7237H47.9539C48.008 14.9702 48.352 12.459 48.9051 10.2811C50.7535 10.7326 52.6726 10.9951 54.6458 11.047ZM46.4675 17.7237H38.4176C38.5806 13.9275 39.9948 10.4485 42.2593 7.69356C43.9036 8.5994 45.6482 9.34078 47.4757 9.89465C46.8793 12.25 46.5216 14.9053 46.4675 17.7237ZM46.4675 19.2007C46.5216 22.0177 46.8793 24.673 47.4758 27.0284C45.649 27.5837 43.9037 28.3251 42.2594 29.2308C39.9949 26.476 38.5807 22.997 38.4177 19.2007H46.4675ZM47.9539 19.2007H54.6458V25.8688C52.6727 25.9207 50.7528 26.1847 48.9045 26.6375C48.3513 24.4611 48.008 21.9514 47.9539 19.2007ZM54.6458 27.3443V35.348C52.6402 34.8244 50.6028 32.1574 49.3076 28.0582C51.0268 27.64 52.8118 27.3963 54.6458 27.3443ZM56.1224 35.3306V27.3443C57.9412 27.3963 59.711 27.6371 61.4174 28.0481C60.1322 32.1214 58.1143 34.7797 56.1224 35.3306ZM56.1224 25.8688V19.2007H62.7689C62.7141 21.9469 62.3722 24.4523 61.8212 26.6274C59.9851 26.1803 58.0812 25.9207 56.1224 25.8688ZM64.2545 19.2007H72.3505C72.1876 22.997 70.7741 26.4746 68.5096 29.2295C66.8521 28.3179 65.0925 27.5708 63.2492 27.014C63.8448 24.6615 64.2011 22.0119 64.2545 19.2007ZM64.2545 17.7237C64.2011 14.9083 63.8434 12.2572 63.2478 9.90325C65.0897 9.34649 66.8495 8.60081 68.5053 7.68926C70.7726 10.4441 72.1876 13.9246 72.3505 17.7237H64.2545ZM67.4884 6.56129C66.0187 7.343 64.468 7.98918 62.8482 8.47965C61.9842 5.70164 60.7726 3.43427 59.3389 1.94573C62.4832 2.70016 65.2915 4.32706 67.4884 6.56129ZM51.3709 1.96019C49.9451 3.44584 48.7386 5.70313 47.8782 8.46668C46.2742 7.97769 44.7367 7.33729 43.2807 6.56129C45.4628 4.34152 48.2496 2.71884 51.3709 1.96019ZM43.2756 30.3574C44.733 29.58 46.2713 28.9396 47.8767 28.4506C48.7371 31.217 49.9436 33.4772 51.3708 34.9643C48.2475 34.2042 45.4593 32.5801 43.2756 30.3574ZM59.3389 34.9773C60.7741 33.4887 61.9857 31.2199 62.8497 28.4376C64.4709 28.9295 66.0229 29.5742 67.4927 30.3588C65.2959 32.5945 62.4861 34.2243 59.3389 34.9773Z" fill="#E20B1A"/>
<path d="M0 53.8132V41.8816H2.51793V46.883L7.21123 41.8816L10.0546 41.8987L5.24141 46.9854L10.4486 53.8303H7.6737L3.69982 48.607L2.51793 49.8702V53.8132H0Z" fill="#58585A"/>
<path d="M10.9966 47.9413C10.9966 44.4933 13.5487 41.7109 16.906 41.7109C20.2632 41.7109 22.8668 44.4933 22.8668 47.9413C22.8668 51.2869 20.2632 54.001 16.906 54.001C13.5487 54.001 10.9966 51.2869 10.9966 47.9413ZM16.906 44.186C14.9362 44.186 13.4974 45.8418 13.4974 47.9413C13.4974 49.9384 14.9362 51.5259 16.906 51.5259C18.8758 51.5259 20.366 49.9384 20.366 47.9413C20.366 45.8418 18.8758 44.186 16.906 44.186Z" fill="#58585A"/>
<path d="M24.2498 45.3979C24.2498 42.8887 26.271 41.728 28.9431 41.728C30.8615 41.728 33.2767 42.8205 33.3452 45.5857L30.9301 45.6028C30.8273 44.5103 29.9023 44.0324 28.9089 44.0324C27.727 44.0324 27.0247 44.4421 27.0247 45.2443C27.0247 46.2002 28.3094 46.5245 29.7996 46.883C31.5638 47.3439 33.6364 47.9242 33.6364 50.1262C33.6364 52.8915 31.4953 53.9839 29.1487 53.9839C27.2645 53.9839 24.4211 53.2158 24.3526 49.8019L26.8192 49.7848C26.8705 51.2699 28.2408 51.6795 29.1829 51.6795C30.2107 51.6795 30.8615 51.2186 30.8615 50.3481C30.8615 49.5117 29.7996 49.2557 28.6005 48.9655C26.6479 48.5046 24.2498 47.9242 24.2498 45.3979Z" fill="#58585A"/>
<path d="M35.2612 41.8816H37.9162L42.4382 51.1674L46.9602 41.8816H49.6152V53.8303H47.0972V46.9342L43.74 53.8303H41.1364L37.7792 46.9342V53.8303H35.2612V41.8816Z" fill="#58585A"/>
<path d="M51.2091 47.9413C51.2091 44.4933 53.7613 41.7109 57.1185 41.7109C60.4758 41.7109 63.0793 44.4933 63.0793 47.9413C63.0793 51.2869 60.4758 54.001 57.1185 54.001C53.7613 54.001 51.2091 51.2869 51.2091 47.9413ZM57.1185 44.186C55.1487 44.186 53.7099 45.8418 53.7099 47.9413C53.7099 49.9384 55.1487 51.5259 57.1185 51.5259C59.0883 51.5259 60.5785 49.9384 60.5785 47.9413C60.5785 45.8418 59.0883 44.186 57.1185 44.186Z" fill="#58585A"/>
<path d="M64.4624 45.3979C64.4624 42.8887 66.4836 41.728 69.1557 41.728C71.0741 41.728 73.4892 42.8205 73.5577 45.5857L71.1426 45.6028C71.0398 44.5103 70.1149 44.0324 69.1214 44.0324C67.9395 44.0324 67.2372 44.4421 67.2372 45.2443C67.2372 46.2002 68.5219 46.5245 70.0121 46.883C71.7764 47.3439 73.8489 47.9242 73.8489 50.1262C73.8489 52.8915 71.7078 53.9839 69.3612 53.9839C67.477 53.9839 64.6336 53.2158 64.5651 49.8019L67.0317 49.7848C67.0831 51.2699 68.4534 51.6795 69.3955 51.6795C70.4232 51.6795 71.0741 51.2186 71.0741 50.3481C71.0741 49.5117 70.0121 49.2557 68.8131 48.9655C66.8604 48.5046 64.4624 47.9242 64.4624 45.3979Z" fill="#58585A"/>
</svg>
