<?xml version="1.0" encoding="UTF-8"?>
<svg id="katman_1" data-name="katman 1" xmlns="http://www.w3.org/2000/svg" viewBox="0 0 255.35 55.23" height="60px">
  <defs>
    <style>
      .cls-1 {
        font-family: Helvetica-Bold, Helvetica;
        font-weight: 700;
      }

      .cls-1, .cls-2 {
        font-size: 14px;
      }

      .cls-3 {
        fill: #fafeff;
      }

      .cls-4 {
        fill: #e31f26;
      }

      .cls-2 {
        font-family: Helvetica, Helvetica;
      }
    </style>
  </defs>
  <g>
    <circle class="cls-3" cx="27.93" cy="28.31" r="24.49"/>
    <g>
      <path class="cls-4" d="m44.96,45.22h-.87c-.17,0-.24-.23-.11-.34l.25-.22c.21-.19.48-.29.76-.29h.87c.17,0,.24.23.11.34l-.25.22c-.21.18-.48.29-.76.29"/>
      <path class="cls-4" d="m46.1,43.99l-.87.06c-.17.01-.26-.21-.13-.33l.24-.23c.2-.2.46-.32.73-.34l.87-.06c.17-.01.26.21.14.33l-.24.23c-.2.2-.46.32-.73.34"/>
      <path class="cls-4" d="m47.16,42.68l-.87.12c-.17.02-.27-.19-.16-.32l.22-.25c.19-.21.44-.35.71-.39l.87-.12c.17-.02.27.19.16.32l-.22.25c-.19.21-.44.35-.71.39"/>
      <path class="cls-4" d="m48.12,41.31l-.86.18c-.16.04-.28-.17-.18-.31l.2-.26c.17-.23.41-.38.68-.44l.86-.18c.16-.03.28.17.18.31l-.2.26c-.17.22-.41.38-.68.44"/>
      <path class="cls-4" d="m48.98,39.87l-.84.24c-.16.05-.3-.15-.2-.3l.18-.28c.15-.24.38-.41.65-.48l.84-.24c.16-.05.3.15.2.3l-.18.28c-.16.24-.38.41-.65.48"/>
      <path class="cls-4" d="m49.74,38.37l-.82.3c-.16.06-.3-.13-.22-.28l.16-.29c.14-.25.35-.43.61-.53l.82-.3c.16-.06.3.13.22.28l-.16.29c-.14.25-.35.43-.61.53"/>
      <path class="cls-4" d="m50.39,36.83l-.8.36c-.15.07-.31-.11-.24-.27l.14-.3c.12-.26.32-.46.57-.57l.8-.36c.15-.07.31.11.24.26l-.14.3c-.12.26-.32.46-.57.57"/>
      <path class="cls-4" d="m50.94,35.24l-.77.41c-.15.08-.32-.09-.26-.25l.12-.31c.1-.26.29-.48.53-.61l.77-.41c.15-.08.32.09.26.25l-.12.31c-.1.26-.29.48-.53.61"/>
      <path class="cls-4" d="m51.37,33.62l-.74.46c-.14.09-.32-.07-.27-.23l.1-.32c.09-.27.26-.5.49-.64l.74-.46c.14-.09.33.06.27.23l-.1.32c-.08.27-.26.5-.49.64"/>
      <path class="cls-4" d="m51.69,31.97l-.71.51c-.14.1-.33-.04-.29-.21l.08-.32c.06-.28.22-.51.44-.68l.71-.51c.14-.1.33.04.29.21l-.08.32c-.06.28-.22.51-.44.67"/>
      <path class="cls-4" d="m51.89,30.31l-.67.56c-.13.11-.33-.02-.3-.19l.05-.33c.04-.28.18-.53.39-.71l.67-.56c.13-.11.33.02.3.19l-.05.33c-.04.28-.18.53-.39.71"/>
      <path class="cls-4" d="m51.98,28.63l-.63.61c-.12.12-.33,0-.32-.17l.03-.33c.03-.28.15-.54.35-.73l.63-.61c.12-.12.33,0,.32.17l-.03.33c-.02.28-.15.54-.34.73"/>
      <path class="cls-4" d="m51.95,26.95l-.59.65c-.11.13-.33.03-.33-.14v-.33c.01-.28.12-.55.3-.75l.59-.65c.11-.12.33-.03.33.15v.33c-.01.28-.12.55-.3.75"/>
      <path class="cls-4" d="m51.8,25.28l-.54.69c-.1.13-.33.05-.34-.12l-.02-.33c-.01-.28.07-.55.24-.77l.54-.69c.1-.13.33-.05.34.12l.02.33c.01.28-.07.55-.24.77"/>
      <path class="cls-4" d="m51.54,23.62l-.49.72c-.09.14-.32.07-.34-.1l-.04-.33c-.03-.28.03-.56.18-.79l.49-.72c.09-.14.32-.08.34.1l.04.33c.03.28-.03.56-.18.79"/>
      <path class="cls-4" d="m51.16,21.99l-.44.76c-.08.15-.32.1-.35-.07l-.06-.33c-.05-.28,0-.56.13-.8l.44-.76c.08-.15.32-.1.35.07l.06.33c.05.28,0,.56-.13.8"/>
      <path class="cls-4" d="m50.66,20.39l-.38.79c-.07.15-.31.12-.35-.05l-.09-.32c-.07-.27-.05-.56.07-.8l.38-.79c.07-.15.31-.12.35.05l.09.32c.07.27.04.56-.07.8"/>
      <path class="cls-4" d="m50.06,18.82l-.33.81c-.06.15-.3.14-.36-.03l-.11-.31c-.09-.27-.09-.55.02-.81l.33-.81c.06-.16.3-.14.36.02l.11.31c.09.27.09.55-.02.81"/>
      <path class="cls-4" d="m49.35,17.3l-.27.83c-.05.16-.29.16-.36,0l-.13-.31c-.11-.26-.12-.55-.04-.81l.27-.83c.05-.16.29-.16.36,0l.13.3c.11.26.12.55.04.81"/>
      <path class="cls-4" d="m48.53,15.83l-.21.85c-.04.16-.28.18-.36.03l-.15-.3c-.13-.25-.16-.53-.09-.8l.21-.85c.04-.16.28-.18.36-.03l.15.3c.13.25.16.54.1.8"/>
      <path class="cls-4" d="m47.62,14.43l-.15.86c-.03.17-.27.2-.35.05l-.17-.29c-.15-.24-.2-.52-.15-.79l.15-.86c.03-.17.26-.2.35-.05l.17.29c.14.24.2.52.15.79"/>
      <path class="cls-4" d="m46.61,13.09l-.09.87c-.02.17-.25.22-.35.07l-.19-.27c-.16-.23-.24-.51-.21-.78l.09-.87c.02-.17.25-.22.35-.08l.19.27c.16.23.23.51.21.78"/>
      <path class="cls-4" d="m45.5,11.82l-.03.87c0,.17-.24.23-.34.1l-.21-.26c-.18-.22-.27-.49-.26-.77l.03-.87c0-.17.23-.23.34-.1l.21.26c.18.22.27.49.26.76"/>
      <path class="cls-4" d="m44.32,10.64l.03.87c0,.17-.22.25-.34.12l-.23-.24c-.19-.21-.3-.47-.31-.75l-.03-.87c0-.17.22-.25.34-.12l.22.24c.19.21.3.47.31.74"/>
      <path class="cls-4" d="m43.05,9.54l.09.87c.02.17-.2.27-.33.15l-.24-.23c-.21-.19-.33-.45-.36-.72l-.09-.87c-.02-.17.2-.26.33-.15l.24.23c.21.19.33.45.36.72"/>
      <path class="cls-4" d="m41.71,8.53l.15.86c.03.17-.18.28-.32.17l-.26-.21c-.22-.18-.36-.42-.41-.69l-.15-.86c-.03-.17.18-.28.31-.17l.26.21c.22.18.36.42.41.69"/>
      <path class="cls-4" d="m40.3,7.62l.21.85c.04.16-.16.29-.3.19l-.27-.19c-.23-.16-.39-.4-.46-.66l-.21-.85c-.04-.16.16-.29.3-.19l.27.19c.23.16.39.4.46.66"/>
      <path class="cls-4" d="m38.83,6.81l.27.83c.05.16-.14.3-.29.21l-.28-.17c-.24-.15-.42-.37-.51-.63l-.27-.83c-.05-.16.14-.3.29-.21l.28.17c.24.15.42.37.51.63"/>
      <path class="cls-4" d="m37.31,6.1l.33.81c.06.16-.12.31-.27.23l-.29-.15c-.25-.13-.45-.34-.55-.59l-.33-.81c-.06-.16.12-.31.27-.23l.3.15c.25.13.44.34.55.59"/>
      <path class="cls-4" d="m35.74,5.5l.38.79c.07.15-.1.32-.26.25l-.31-.13c-.26-.11-.47-.31-.59-.55l-.38-.79c-.07-.15.1-.32.26-.25l.31.13c.26.11.47.31.59.55"/>
      <path class="cls-4" d="m34.13,5.01l.44.76c.08.15-.08.32-.24.27l-.31-.11c-.27-.09-.49-.27-.63-.51l-.44-.76c-.08-.15.08-.32.24-.27l.31.11c.27.09.49.27.63.51"/>
      <path class="cls-4" d="m32.5,4.63l.49.72c.09.14-.05.33-.22.28l-.32-.09c-.27-.07-.51-.24-.66-.47l-.49-.73c-.09-.14.05-.33.22-.28l.32.09c.27.07.51.24.66.47"/>
      <path class="cls-4" d="m30.84,4.37l.54.69c.1.13-.03.33-.2.3l-.33-.06c-.28-.05-.52-.2-.69-.42l-.54-.69c-.1-.13.03-.33.2-.3l.32.07c.28.05.52.2.69.42"/>
      <path class="cls-4" d="m29.17,4.23l.58.65c.11.13,0,.33-.18.31l-.33-.04c-.28-.04-.54-.17-.72-.37l-.59-.65c-.11-.12,0-.33.18-.31l.33.04c.28.03.53.17.72.37"/>
      <path class="cls-4" d="m27.49,4.2l.63.61c.12.12.02.33-.16.32l-.33-.02c-.28-.02-.54-.13-.74-.32l-.63-.61c-.12-.12-.02-.33.16-.32l.33.02c.28.02.55.13.74.32"/>
      <path class="cls-4" d="m25.81,4.29l.67.56c.13.11.04.33-.13.33h-.33c-.28,0-.55-.08-.76-.26l-.67-.56c-.13-.11-.04-.33.13-.33h.33c.28,0,.55.08.76.26"/>
      <path class="cls-4" d="m24.15,4.5l.71.51c.13.1.06.33-.11.34l-.33.03c-.28.02-.56-.05-.78-.21l-.71-.51c-.14-.1-.06-.33.11-.34l.33-.03c.28-.02.56.05.78.21"/>
      <path class="cls-4" d="m22.5,4.82l.74.46c.14.09.09.32-.09.35l-.33.05c-.28.04-.56-.01-.79-.16l-.74-.46c-.14-.09-.08-.32.09-.35l.33-.05c.28-.04.56.01.79.16"/>
      <path class="cls-4" d="m20.88,5.26l.77.41c.15.08.11.31-.06.35l-.32.07c-.28.06-.56.03-.8-.1l-.77-.41c-.15-.08-.11-.31.06-.35l.32-.08c.28-.06.56-.03.8.1"/>
      <path class="cls-4" d="m19.29,5.8l.8.35c.15.07.13.31-.03.36l-.32.1c-.27.08-.56.07-.81-.05l-.8-.36c-.15-.07-.13-.31.04-.36l.32-.1c.27-.08.56-.07.81.05"/>
      <path class="cls-4" d="m17.75,6.46l.82.3c.16.06.15.3-.01.36l-.31.12c-.26.1-.55.1-.81.01l-.82-.3c-.16-.06-.15-.3.01-.36l.31-.12c.26-.1.55-.1.81-.01"/>
      <path class="cls-4" d="m16.25,7.22l.84.24c.16.05.17.28.01.36l-.3.14c-.26.12-.54.14-.8.07l-.84-.24c-.16-.05-.17-.29-.01-.36l.3-.14c.26-.12.54-.14.81-.07"/>
      <path class="cls-4" d="m14.81,8.09l.86.18c.16.03.19.27.04.36l-.29.16c-.25.14-.53.18-.8.12l-.86-.18c-.16-.03-.19-.27-.04-.36l.29-.16c.25-.14.53-.18.8-.12"/>
      <path class="cls-4" d="m13.44,9.05l.87.12c.17.02.21.26.06.35l-.28.18c-.24.15-.52.22-.79.18l-.87-.12c-.17-.02-.21-.26-.06-.35l.28-.18c.24-.15.52-.22.79-.18"/>
      <path class="cls-4" d="m12.14,10.11l.87.06c.17,0,.23.24.09.35l-.27.2c-.23.17-.5.25-.77.23l-.87-.06c-.17-.01-.23-.24-.09-.35l.27-.2c.23-.17.5-.25.77-.23"/>
      <path class="cls-4" d="m10.91,11.25h.88c.17,0,.24.23.11.34l-.25.22c-.21.18-.48.29-.76.29h-.87c-.17,0-.24-.23-.11-.34l.25-.22c.21-.19.48-.29.76-.29"/>
      <path class="cls-4" d="m9.77,12.48l.87-.06c.17-.01.26.21.14.33l-.24.23c-.2.2-.46.32-.73.34l-.87.06c-.17.01-.26-.21-.14-.33l.24-.23c.2-.2.46-.32.73-.34"/>
      <path class="cls-4" d="m8.71,13.79l.87-.12c.17-.02.27.19.16.32l-.22.25c-.19.21-.44.35-.71.39l-.87.12c-.17.02-.27-.19-.16-.32l.22-.25c.19-.21.44-.35.71-.39"/>
      <path class="cls-4" d="m7.75,15.16l.86-.18c.17-.03.28.17.18.31l-.2.26c-.17.23-.41.38-.68.44l-.86.18c-.16.04-.28-.17-.18-.31l.2-.26c.17-.23.41-.38.68-.44"/>
      <path class="cls-4" d="m6.89,16.6l.84-.24c.16-.05.3.15.2.3l-.18.28c-.15.24-.38.41-.65.48l-.84.24c-.16.05-.29-.15-.2-.3l.18-.28c.16-.24.38-.41.65-.48"/>
      <path class="cls-4" d="m6.13,18.1l.82-.3c.16-.06.3.13.22.28l-.16.29c-.14.25-.35.43-.61.53l-.82.3c-.16.06-.31-.13-.22-.28l.16-.29c.14-.25.35-.43.61-.53"/>
      <path class="cls-4" d="m5.47,19.64l.8-.35c.15-.07.31.11.24.27l-.14.3c-.12.26-.32.46-.57.57l-.8.36c-.15.07-.31-.11-.24-.26l.14-.3c.12-.26.32-.46.57-.57"/>
      <path class="cls-4" d="m4.93,21.23l.77-.41c.15-.08.32.09.26.25l-.12.31c-.1.26-.29.48-.53.61l-.77.41c-.15.08-.32-.09-.26-.25l.12-.31c.1-.26.29-.48.53-.61"/>
      <path class="cls-4" d="m4.5,22.85l.74-.46c.14-.09.32.07.27.23l-.1.32c-.08.27-.26.5-.49.64l-.74.46c-.14.09-.33-.06-.27-.23l.1-.32c.08-.27.26-.5.49-.64"/>
      <path class="cls-4" d="m4.18,24.5l.71-.51c.14-.1.33.04.29.21l-.08.32c-.06.28-.22.51-.44.68l-.71.51c-.14.1-.33-.04-.29-.21l.07-.32c.06-.28.22-.51.44-.68"/>
      <path class="cls-4" d="m3.97,26.17l.67-.56c.13-.11.33.02.3.19l-.05.33c-.04.28-.18.53-.39.71l-.67.56c-.13.11-.33-.02-.3-.19l.05-.33c.04-.28.18-.53.39-.71"/>
      <path class="cls-4" d="m3.89,27.84l.63-.61c.12-.11.33,0,.32.17l-.03.33c-.03.28-.15.54-.35.73l-.63.61c-.12.12-.33,0-.32-.17l.03-.33c.03-.28.15-.54.34-.73"/>
      <path class="cls-4" d="m3.92,29.52l.59-.65c.11-.12.33-.03.33.14v.33c-.01.28-.12.55-.3.75l-.59.65c-.11.12-.33.03-.33-.14v-.33c.01-.28.12-.55.3-.75"/>
      <path class="cls-4" d="m4.07,31.19l.54-.69c.1-.13.33-.05.34.12l.02.33c.01.28-.07.55-.24.77l-.54.69c-.1.13-.33.05-.34-.12l-.02-.33c-.01-.28.07-.56.24-.77"/>
      <path class="cls-4" d="m4.33,32.85l.49-.72c.09-.14.32-.08.34.1l.04.33c.03.28-.03.56-.19.78l-.49.73c-.09.14-.32.07-.34-.1l-.04-.33c-.03-.28.03-.56.19-.79"/>
      <path class="cls-4" d="m4.71,34.48l.44-.76c.08-.15.32-.1.35.07l.06.32c.05.28,0,.56-.13.8l-.44.76c-.08.14-.32.1-.35-.07l-.06-.33c-.05-.28,0-.56.13-.8"/>
      <path class="cls-4" d="m5.2,36.09l.38-.79c.07-.15.31-.12.35.05l.09.32c.07.27.05.56-.07.8l-.38.79c-.07.15-.31.12-.36-.05l-.08-.32c-.07-.27-.05-.56.07-.8"/>
      <path class="cls-4" d="m5.81,37.65l.33-.81c.06-.16.3-.14.36.02l.11.31c.09.27.09.55-.02.81l-.33.81c-.06.16-.3.14-.36-.02l-.11-.31c-.09-.27-.08-.55.02-.81"/>
      <path class="cls-4" d="m6.52,39.17l.27-.83c.05-.16.29-.16.36,0l.13.31c.11.26.12.55.04.81l-.27.83c-.05.16-.29.16-.36,0l-.13-.31c-.11-.26-.12-.55-.04-.81"/>
      <path class="cls-4" d="m7.33,40.64l.21-.85c.04-.16.28-.18.36-.03l.15.3c.13.25.16.54.09.8l-.21.85c-.04.16-.28.18-.36.03l-.15-.3c-.13-.25-.16-.54-.1-.8"/>
      <path class="cls-4" d="m8.25,42.04l.15-.86c.03-.17.27-.2.35-.05l.17.29c.14.24.2.52.15.79l-.15.86c-.03.17-.26.2-.35.05l-.17-.28c-.14-.24-.2-.52-.15-.79"/>
      <path class="cls-4" d="m9.26,43.38l.09-.87c.02-.17.25-.22.35-.08l.19.27c.16.23.23.51.21.78l-.09.87c-.02.17-.25.22-.35.08l-.19-.27c-.16-.23-.23-.51-.21-.78"/>
      <path class="cls-4" d="m10.36,44.65l.03-.87c0-.17.24-.23.34-.1l.21.26c.18.22.27.49.26.76l-.03.87c0,.17-.23.23-.34.1l-.21-.26c-.18-.22-.27-.49-.26-.76"/>
      <path class="cls-4" d="m11.55,45.84l-.03-.87c0-.17.22-.25.34-.12l.23.24c.19.21.3.47.31.74l.03.87c0,.17-.22.25-.34.12l-.22-.24c-.19-.21-.3-.47-.31-.74"/>
      <path class="cls-4" d="m12.82,46.93l-.09-.87c-.02-.17.2-.26.33-.15l.24.23c.21.19.33.45.36.72l.09.87c.02.17-.2.26-.33.15l-.24-.23c-.21-.19-.34-.45-.36-.72"/>
      <path class="cls-4" d="m14.16,47.94l-.15-.86c-.03-.17.18-.28.32-.17l.26.21c.22.18.36.43.41.69l.15.86c.03.17-.18.28-.31.17l-.26-.21c-.22-.18-.36-.42-.41-.69"/>
      <path class="cls-4" d="m15.57,48.86l-.21-.85c-.04-.16.16-.29.3-.19l.27.19c.23.16.39.4.46.66l.21.85c.04.16-.16.29-.3.19l-.27-.19c-.23-.16-.39-.4-.46-.66"/>
      <path class="cls-4" d="m17.04,49.67l-.27-.83c-.05-.16.14-.3.29-.21l.28.17c.24.15.42.37.51.63l.27.83c.05.16-.14.3-.29.21l-.28-.17c-.24-.15-.42-.37-.51-.63"/>
      <path class="cls-4" d="m18.56,50.37l-.33-.81c-.06-.16.12-.31.27-.23l.29.15c.25.13.45.34.55.59l.33.81c.06.16-.12.31-.27.23l-.3-.15c-.25-.13-.45-.34-.55-.59"/>
      <path class="cls-4" d="m20.13,50.97l-.38-.79c-.07-.15.1-.32.26-.25l.3.13c.26.11.47.31.59.55l.38.79c.07.15-.1.32-.26.25l-.31-.13c-.26-.11-.47-.31-.59-.55"/>
      <path class="cls-4" d="m21.73,51.46l-.44-.76c-.08-.15.07-.32.24-.27l.31.11c.27.09.49.27.63.51l.44.76c.08.15-.08.32-.24.27l-.31-.11c-.27-.09-.49-.27-.63-.51"/>
      <path class="cls-4" d="m23.37,51.84l-.49-.72c-.09-.14.05-.33.22-.28l.32.09c.27.07.51.24.66.47l.49.72c.09.14-.05.33-.22.28l-.32-.09c-.27-.07-.51-.24-.66-.47"/>
      <path class="cls-4" d="m25.03,52.1l-.54-.69c-.1-.13.03-.33.2-.3l.33.06c.28.05.52.2.69.42l.54.69c.1.13-.03.33-.2.3l-.32-.06c-.28-.05-.52-.2-.69-.42"/>
      <path class="cls-4" d="m26.7,52.25l-.58-.65c-.11-.13,0-.33.18-.31l.33.04c.28.03.53.17.72.37l.59.65c.11.13,0,.33-.18.31l-.33-.04c-.28-.04-.53-.17-.72-.37"/>
      <path class="cls-4" d="m28.38,52.27l-.63-.61c-.12-.12-.02-.33.16-.32l.33.02c.28.01.55.13.74.32l.63.61c.12.12.02.33-.16.32l-.33-.02c-.28-.02-.55-.13-.74-.32"/>
      <path class="cls-4" d="m30.05,52.18l-.67-.56c-.13-.11-.04-.33.13-.33h.33c.28,0,.55.08.76.26l.67.56c.13.11.04.33-.13.33h-.33c-.28,0-.55-.08-.76-.26"/>
      <path class="cls-4" d="m31.72,51.98l-.71-.51c-.13-.1-.06-.33.11-.34l.33-.03c.28-.02.56.05.78.21l.71.51c.13.1.06.32-.11.34l-.33.03c-.28.02-.56-.05-.78-.21"/>
      <path class="cls-4" d="m33.37,51.65l-.74-.46c-.14-.09-.09-.32.08-.35l.33-.05c.28-.04.56.01.79.16l.74.46c.14.09.08.32-.09.35l-.33.05c-.28.04-.56-.01-.79-.16"/>
      <path class="cls-4" d="m34.99,51.22l-.77-.41c-.15-.08-.11-.31.06-.35l.32-.07c.28-.06.56-.03.8.1l.77.41c.15.08.11.31-.06.35l-.32.07c-.28.06-.56.03-.8-.1"/>
      <path class="cls-4" d="m36.58,50.67l-.8-.36c-.15-.07-.13-.3.04-.35l.32-.1c.27-.08.56-.07.81.05l.8.35c.15.07.13.31-.04.36l-.32.1c-.27.08-.56.07-.81-.05"/>
      <path class="cls-4" d="m38.12,50.01l-.82-.3c-.16-.06-.15-.29.01-.36l.31-.12c.27-.1.55-.1.81,0l.82.3c.16.06.15.3-.01.36l-.31.12c-.26.1-.55.1-.81.01"/>
      <path class="cls-4" d="m39.62,49.25l-.84-.24c-.16-.05-.17-.28-.01-.36l.3-.14c.26-.12.54-.14.81-.07l.84.24c.16.05.17.28.01.36l-.3.14c-.26.12-.54.14-.8.07"/>
      <path class="cls-4" d="m41.05,48.38l-.86-.18c-.16-.04-.19-.27-.04-.36l.29-.16c.25-.14.53-.18.8-.12l.86.18c.16.04.19.27.04.36l-.29.16c-.25.14-.53.18-.8.12"/>
      <path class="cls-4" d="m42.43,47.42l-.87-.12c-.17-.02-.21-.26-.06-.35l.28-.18c.24-.15.52-.22.79-.18l.87.12c.17.02.21.26.06.35l-.28.18c-.24.15-.52.22-.79.18"/>
      <path class="cls-4" d="m43.73,46.36l-.87-.06c-.17-.01-.23-.24-.09-.35l.27-.2c.23-.17.5-.25.77-.23l.87.06c.17.01.23.24.09.35l-.27.2c-.23.17-.5.25-.77.23"/>
      <polygon class="cls-4" points="25.68 9.31 27.08 8.31 26.54 6.67 27.92 7.68 29.32 6.66 28.78 8.29 30.18 9.3 28.47 9.3 27.94 10.94 27.41 9.31 25.68 9.31"/>
      <polygon class="cls-4" points="18.61 11.61 19.52 10.16 18.39 8.84 20.06 9.25 20.96 7.77 21.08 9.49 22.77 9.88 21.18 10.53 21.32 12.26 20.21 10.95 18.61 11.61"/>
      <polygon class="cls-4" points="12.96 16.45 13.24 14.75 11.69 13.97 13.39 13.71 13.66 12 14.43 13.53 16.14 13.26 14.92 14.47 15.71 16.01 14.18 15.22 12.96 16.45"/>
      <polygon class="cls-4" points="9.59 23.07 9.2 21.4 7.47 21.27 8.94 20.38 8.53 18.7 9.83 19.82 11.3 18.91 10.64 20.5 11.96 21.62 10.25 21.47 9.59 23.07"/>
      <polygon class="cls-4" points="9.01 30.49 8.01 29.09 6.36 29.63 7.38 28.25 6.36 26.85 7.99 27.39 9 25.99 8.99 27.7 10.64 28.23 9 28.76 9.01 30.49"/>
      <polygon class="cls-4" points="11.31 37.56 9.85 36.65 8.54 37.78 8.95 36.11 7.47 35.21 9.18 35.09 9.58 33.4 10.23 34.99 11.95 34.85 10.64 35.96 11.31 37.56"/>
      <polygon class="cls-4" points="16.14 43.21 14.45 42.93 13.67 44.48 13.41 42.78 11.7 42.51 13.23 41.74 12.96 40.03 14.16 41.25 15.7 40.46 14.92 41.99 16.14 43.21"/>
      <polygon class="cls-4" points="22.77 46.58 21.1 46.97 20.97 48.7 20.08 47.23 18.4 47.64 19.52 46.34 18.61 44.87 20.19 45.53 21.31 44.21 21.17 45.92 22.77 46.58"/>
      <polygon class="cls-4" points="30.18 47.16 28.79 48.16 29.33 49.81 27.95 48.79 26.55 49.81 27.09 48.18 25.68 47.17 27.4 47.18 27.93 45.53 28.45 47.16 30.18 47.16"/>
      <polygon class="cls-4" points="37.25 44.86 36.35 46.32 37.48 47.63 35.81 47.22 34.91 48.7 34.78 46.99 33.1 46.59 34.69 45.94 34.55 44.22 35.66 45.53 37.25 44.86"/>
      <polygon class="cls-4" points="42.9 40.03 42.63 41.72 44.17 42.5 42.48 42.76 42.21 44.47 41.44 42.94 39.73 43.21 40.95 42.01 40.16 40.47 41.69 41.25 42.9 40.03"/>
      <polygon class="cls-4" points="46.28 33.4 46.67 35.07 48.39 35.2 46.93 36.09 47.34 37.77 46.04 36.65 44.56 37.56 45.23 35.98 43.91 34.86 45.62 35 46.28 33.4"/>
      <polygon class="cls-4" points="46.86 25.99 47.86 27.38 49.5 26.84 48.49 28.23 49.51 29.62 47.88 29.08 46.87 30.49 46.87 28.77 45.23 28.24 46.86 27.72 46.86 25.99"/>
      <polygon class="cls-4" points="44.56 18.92 46.02 19.82 47.33 18.69 46.92 20.36 48.4 21.26 46.68 21.39 46.29 23.07 45.64 21.48 43.91 21.62 45.22 20.51 44.56 18.92"/>
      <polygon class="cls-4" points="39.72 13.27 41.42 13.54 42.2 12 42.46 13.69 44.17 13.96 42.64 14.73 42.91 16.44 41.7 15.22 40.16 16.01 40.95 14.49 39.72 13.27"/>
      <polygon class="cls-4" points="33.1 9.89 34.77 9.5 34.9 7.78 35.79 9.24 37.47 8.83 36.35 10.13 37.26 11.61 35.67 10.94 34.55 12.26 34.7 10.55 33.1 9.89"/>
      <path class="cls-4" d="m36.82,28.82l1.17,1.62-2.57-.84-1.6,2.2v-2.71l-2.57-.84,2.57-.84v-2.71l.69.94.91,1.25,2.57-.83-1.59,2.19.42.58Zm-7.87,5.95c-.97.54-2.06.87-3.23.92-.12.01-.25.01-.38.01-1.89,0-3.62-.7-4.93-1.86-1.55-1.36-2.53-3.37-2.53-5.59,0-1.44.41-2.79,1.12-3.93.76-1.24,1.88-2.24,3.23-2.85.28-.14.58-.25.89-.34.7-.22,1.45-.34,2.22-.34,2.65,0,4.98,1.39,6.3,3.48-1.09-1.22-2.68-1.98-4.44-1.98-.89,0-1.72.19-2.48.54-.28.12-.54.28-.79.44-1.23.8-2.14,2.04-2.52,3.5-.12.47-.19.97-.19,1.49,0,1.34.44,2.58,1.19,3.58,1.09,1.45,2.82,2.39,4.78,2.39h0c.39,0,.77-.03,1.14-.11,1.29-.25,2.44-.92,3.3-1.87-.67,1.06-1.6,1.93-2.69,2.54m-1.02-22.84c-9.01,0-16.32,7.31-16.32,16.32s7.31,16.32,16.32,16.32,16.32-7.31,16.32-16.32-7.31-16.32-16.32-16.32"/>
    </g>
  </g>
  <g>
    <text class="cls-2" transform="translate(57.61 23.54)"><tspan x="0" y="0">TÜRKİYE CUMHURİYETİ</tspan></text>
    <text class="cls-1" transform="translate(57.61 38.77)"><tspan x="0" y="0">DUBAİ BAŞKONSOLOSLUĞU</tspan></text>
  </g>
</svg>
