<svg width="13" height="13" viewBox="0 0 13 13" fill="none" xmlns="http://www.w3.org/2000/svg"><path d="M6.07.922a.695.695 0 01.4-.375 1.05 1.05 0 01.539 0c.187.07.328.187.422.375l1.523 3.094 3.422.492c.188.047.352.14.469.281a.844.844 0 01.164.516c0 .187-.07.351-.211.492L10.312 8.21l.586 3.422a.87.87 0 01-.117.539.63.63 0 01-.422.305.718.718 0 01-.539-.07l-3.07-1.595-3.07 1.594a.732.732 0 01-.54.07c-.187-.046-.35-.14-.445-.304a.727.727 0 01-.093-.54l.586-3.421L.703 5.797c-.14-.14-.234-.305-.234-.492 0-.188.047-.352.164-.516a.86.86 0 01.492-.281l3.422-.492L6.07.922z" fill="#FFD800"/></svg>